HIERARCHY
ROOT Hips
{
	OFFSET 0.00000 0.00000 0.00000
	CHANNELS 6 Xposition Yposition Zposition Zrotation Yrotation Xrotation 
	JOINT LHipJoint
	{
		OFFSET 0 0 0
		CHANNELS 3 Zrotation Yrotation Xrotation
		JOINT LeftHip
		{
			OFFSET 1.55766 -1.60504 1.11378
			CHANNELS 3 Zrotation Yrotation Xrotation
			JOINT LeftKnee
			{
				OFFSET 2.29047 -6.29302 0.00000
				CHANNELS 3 Zrotation Yrotation Xrotation
				JOINT LeftAnkle
				{
					OFFSET 2.52265 -6.93093 0.00000
					CHANNELS 3 Zrotation Yrotation Xrotation
					JOINT LeftToe
					{
						OFFSET 0.17633 -0.48446 2.02656
						CHANNELS 3 Zrotation Yrotation Xrotation
						End Site
						{
							OFFSET 0.00000 -0.00000 1.04989
						}
					}
				}
			}
		}
	}
	JOINT RHipJoint
	{
		OFFSET 0 0 0
		CHANNELS 3 Zrotation Yrotation Xrotation
		JOINT RightHip
		{
			OFFSET -1.48599 -1.60504 1.11378
			CHANNELS 3 Zrotation Yrotation Xrotation
			JOINT RightKnee
			{
				OFFSET -2.27280 -6.24448 0.00000
				CHANNELS 3 Zrotation Yrotation Xrotation
				JOINT RightAnkle
				{
					OFFSET -2.50834 -6.89161 0.00000
					CHANNELS 3 Zrotation Yrotation Xrotation
					JOINT RightToe
					{
						OFFSET -0.26967 -0.74090 2.08741
						CHANNELS 3 Zrotation Yrotation Xrotation
						End Site
						{
							OFFSET -0.00000 -0.00000 1.10614
						}
					}
				}
			}
		}
	}
	JOINT lowerback
	{
		OFFSET 0 0 0
		CHANNELS 3 Zrotation Yrotation Xrotation
		JOINT Chest
		{
			OFFSET 0.06481 2.02437 -0.08472
			CHANNELS 3 Zrotation Yrotation Xrotation
			JOINT Chest2
			{
				OFFSET 0.00015 1.96711 0.18069
				CHANNELS 3 Zrotation Yrotation Xrotation
				JOINT lowerneck
				{
					OFFSET 0 0 0
					CHANNELS 3 Zrotation Yrotation Xrotation
					JOINT Neck
					{
						OFFSET -0.29961 1.68293 -0.13041
						CHANNELS 3 Zrotation Yrotation Xrotation
						JOINT Head
						{
							OFFSET 0.59697 1.61501 -0.14669
							CHANNELS 3 Zrotation Yrotation Xrotation
							End Site
							{
								OFFSET 0.22973 1.74906 -0.10148
							}
						}
					}
				}
				JOINT LeftCollar
				{
					OFFSET 0 0 0
					CHANNELS 3 Zrotation Yrotation Xrotation
					JOINT LeftShoulder
					{
						OFFSET 3.37968 1.02893 0.31147
CHANNELS 3 Zrotation Xrotation Yrotation
						JOINT LeftElbow
						{
OFFSET 0 -5.198070 -0.000000
CHANNELS 3 Zrotation Xrotation Yrotation
							JOINT LeftWrist
							{
OFFSET 0 -3.093700 -0.000000
CHANNELS 3 Zrotation Xrotation Yrotation
								JOINT lhand
								{
									OFFSET 0 0 0
CHANNELS 3 Zrotation Xrotation Yrotation
									JOINT LFingers
									{
OFFSET 0 -0.672630 -0.000000
CHANNELS 3 Zrotation Xrotation Yrotation
										End Site
										{
OFFSET 0 -0.542290 -0.000000
										}
									}
								}
								JOINT LThumb
								{
OFFSET 0 0.000000 0.000000
CHANNELS 3 Zrotation Xrotation Yrotation
									End Site
									{
OFFSET 0 -0.550570 0.550570
									}
								}
							}
						}
					}
				}
				JOINT RightCollar
				{
					OFFSET 0 0 0
					CHANNELS 3 Zrotation Yrotation Xrotation
					JOINT RightShoulder
					{
						OFFSET -3.38254 0.96355 -0.16120
CHANNELS 3 Zrotation Xrotation Yrotation
						JOINT RightElbow
						{
OFFSET 0 -5.452220 -0.000000
CHANNELS 3 Zrotation Xrotation Yrotation
							JOINT RightWrist
							{
OFFSET 0 -3.012840 -0.000000
CHANNELS 3 Zrotation Xrotation Yrotation
								JOINT rhand
								{
									OFFSET 0 0 0
CHANNELS 3 Zrotation Xrotation Yrotation
									JOINT RFingers
									{
OFFSET 0 -0.622300 -0.000000
CHANNELS 3 Zrotation Xrotation Yrotation
										End Site
										{
OFFSET 0 -0.501710 -0.000000
										}
									}
								}
								JOINT RThumb
								{
OFFSET 0 0.000000 0.000000
CHANNELS 3 Zrotation Xrotation Yrotation
									End Site
									{
OFFSET 0 -0.509370 0.509370
									}
								}
							}
						}
					}
				}
			}
		}
	}
}
MOTION
Frames: 5
Frame Time: 0.008333333333333333
5.696933 9.671098 15.534047 -7.104873 6.189309 63.878275 0.000000 0.000000 0.000000 -9.130116 -9.247845 -0.505225 0.475819 4.423736 12.272040 -1.737210 -22.633751 6.676553 1.450215 7.612258 21.542454 0.000000 0.000000 0.000000 6.966619 24.998695 -155.895352 -18.276857 -19.928493 84.956076 0.277866 12.549094 13.587989 -0.096488 -2.002045 5.511444 2.617453 1.204307 22.983430 1.739321 2.413414 1.637413 -0.326526 1.028550 -11.035023 -19.494377 -16.754614 -7.478540 56.656166 -15.917135 -33.785659 26.939225 -12.216161 2.287323 0.000000 0.000000 0.000000 20.791915 -62.085799 -36.600636 15.568955 -24.932742 3.462265 16.898380 -30.191371 31.835634 0.000000 0.000000 0.000000 -7.125000 0.000000 0.000000 -8.353332 -2.689552 -8.828714 0.000000 0.000000 0.000000 -47.947017 -62.689783 81.134273 -19.825327 -30.430714 -5.442948 -65.426610 25.694403 35.833629 0.000000 0.000000 0.000000 7.125000 0.000000 0.000000 -88.985417 30.397505 24.516966
5.737155 9.818020 15.278721 -6.246108 4.860322 64.884712 0.000000 0.000000 0.000000 -10.421541 -10.539173 -2.999026 0.590726 4.920690 13.682386 -2.028314 -24.551449 5.202976 1.613026 8.008563 22.740194 0.000000 0.000000 0.000000 8.683858 25.952138 -155.058679 -16.843623 -19.759331 80.735661 0.187981 13.658524 17.010288 -0.215822 -2.990373 8.251911 2.622500 1.799228 22.684374 0.727469 2.966632 3.688523 -1.565846 1.313758 -8.505088 -20.111824 -16.909068 -6.217996 56.625360 -16.808485 -31.891641 26.517037 -12.647222 3.062790 0.000000 0.000000 0.000000 25.233021 -69.603030 -36.058876 15.227151 -24.461590 3.319452 17.276638 -34.633020 31.659391 0.000000 0.000000 0.000000 -7.125000 0.000000 0.000000 -8.119092 -2.581167 -8.561448 0.000000 0.000000 0.000000 -58.232686 -65.371871 69.553248 -18.322298 -28.567912 -4.702408 -79.850590 49.237997 38.594245 0.000000 0.000000 0.000000 7.125000 0.000000 0.000000 -129.972576 -68.977000 -148.534276
5.772013 9.998625 14.951852 -4.536363 3.647256 65.665395 0.000000 0.000000 0.000000 -11.871663 -12.969458 -6.615462 0.930922 6.145743 17.208043 -2.411586 -26.916975 3.872251 1.922512 8.702732 24.869909 0.000000 0.000000 0.000000 8.803270 25.728913 -154.204218 -15.282199 -19.457533 76.085147 -0.073437 13.836684 20.482663 -0.343979 -3.768259 10.425695 2.202048 1.906548 22.251977 -0.315172 2.848481 5.525590 -2.358169 1.316139 -6.230823 -21.828460 -15.772527 -1.053912 55.200201 -16.663577 -28.975618 27.181255 -12.580025 2.576139 0.000000 0.000000 0.000000 42.963249 -73.806071 -29.254262 16.354176 -25.998437 3.799943 18.740292 -44.205613 30.338507 0.000000 0.000000 0.000000 -7.125000 0.000000 0.000000 -7.129594 -1.519703 -7.373097 0.000000 0.000000 0.000000 -69.723234 -67.050680 53.768473 -16.992839 -26.848240 -4.084160 -81.214712 52.063581 38.463982 0.000000 0.000000 0.000000 7.125000 0.000000 0.000000 -132.233208 -67.843363 -151.331319
5.833452 10.320247 14.593787 -3.342259 2.718697 66.444282 0.000000 0.000000 0.000000 -12.923804 -14.799938 -9.865973 1.125943 6.739857 18.946925 -2.470506 -27.662619 2.147190 1.927635 8.713635 24.903629 0.000000 0.000000 0.000000 10.382413 26.168213 -151.657029 -13.090469 -18.814352 69.406016 -0.532270 13.914385 24.922709 -0.498700 -4.527535 12.565768 2.162371 1.339003 22.490742 -1.089991 2.040578 7.325921 -2.924914 0.985650 -4.405675 -24.117326 -13.975908 5.502050 52.430671 -16.113118 -25.396147 27.265494 -12.105163 1.373361 0.000000 0.000000 0.000000 77.560953 -74.020004 -6.013377 18.155603 -28.355848 4.622958 18.718919 -52.113832 26.053983 0.000000 0.000000 0.000000 -7.125000 0.000000 0.000000 -6.689174 2.837876 -6.394136 0.000000 0.000000 0.000000 -82.611639 -68.960736 32.952712 -16.208578 -25.802587 -3.736246 -77.366691 51.782814 37.418762 0.000000 0.000000 0.000000 7.125000 0.000000 0.000000 -121.228156 -70.858186 -139.674492
5.925165 10.727096 14.221786 -2.775273 2.222480 68.902117 0.000000 0.000000 0.000000 -12.815482 -15.947150 -16.033926 1.398344 7.480473 21.146997 -2.463484 -28.186258 0.382691 1.429763 7.560617 21.387381 0.000000 0.000000 0.000000 13.498485 27.379866 -149.711912 -10.692769 -17.781072 61.779229 -1.181832 12.584700 28.562784 -0.123057 -2.216446 6.106173 2.504316 0.541271 23.528152 -1.716250 1.076113 8.649855 -3.558826 0.567577 -3.518381 -25.659776 -12.616928 8.517079 50.939416 -15.491626 -22.633711 27.458798 -11.591567 0.943858 0.000000 0.000000 0.000000 106.165883 -70.051219 17.246673 19.717651 -30.300621 5.388213 19.544621 -59.089312 24.021555 0.000000 0.000000 0.000000 -7.125000 0.000000 0.000000 -5.999835 4.787318 -5.509106 0.000000 0.000000 0.000000 -100.180480 -70.408678 4.702228 -15.412483 -24.717505 -3.396625 -72.437312 51.290945 34.745051 0.000000 0.000000 0.000000 7.125000 0.000000 0.000000 -97.857558 -73.049246 -115.758837
